<svg width="40" height="40" xmlns="http://www.w3.org/2000/svg" viewBox="0 0 40 40"><g fill="none" fill-rule="evenodd"><path d="M25.339 17.441a.929.929 0 0 1-.148.04.706.706 0 0 0-.143.042.53.53 0 0 1-.125.035.529.529 0 0 0-.124.034.741.741 0 0 1-.151.04.569.569 0 0 0-.142.04.458.458 0 0 1-.118.037c-.049.01-.117.027-.15.04a.744.744 0 0 1-.131.034.744.744 0 0 0-.148.043.433.433 0 0 1-.124.034.319.319 0 0 0-.105.027.732.732 0 0 1-.151.042.751.751 0 0 0-.16.046.571.571 0 0 1-.141.041.586.586 0 0 0-.13.035.588.588 0 0 1-.13.035.318.318 0 0 0-.096.027.722.722 0 0 1-.096.043c-.172.065-.331.204-.536.468a.3.3 0 0 0-.042.075.114.114 0 0 1-.035.051c-.013.01-.031.047-.041.083a.45.45 0 0 1-.037.095.538.538 0 0 0-.038.124c-.011.052-.03.129-.041.17-.033.114-.033 7.83 0 7.946l.039.146c.01.039.031.088.047.109.017.02.03.044.03.053 0 .028.127.14.21.185.102.056.328.064.425.015a.581.581 0 0 1 .133-.042c.043-.008.123-.029.178-.047a.689.689 0 0 1 .127-.034.533.533 0 0 0 .114-.032.929.929 0 0 1 .156-.043.573.573 0 0 0 .123-.035.529.529 0 0 1 .118-.034.95.95 0 0 0 .15-.041c.088-.032.252-.076.393-.106.038-.008.11-.03.159-.047a.965.965 0 0 1 .151-.042.618.618 0 0 0 .124-.034.785.785 0 0 1 .147-.04.394.394 0 0 0 .119-.034.407.407 0 0 1 .121-.036.92.92 0 0 0 .157-.04c.038-.015.108-.034.157-.042a.43.43 0 0 0 .117-.035.563.563 0 0 1 .136-.04.756.756 0 0 0 .132-.034.753.753 0 0 1 .128-.036.549.549 0 0 0 .133-.042.482.482 0 0 1 .083-.04.992.992 0 0 0 .296-.207c.073-.07.188-.205.188-.222 0-.008.01-.023.02-.032a.963.963 0 0 0 .131-.241.482.482 0 0 1 .036-.083.275.275 0 0 0 .026-.076l.035-.158c.032-.136.044-.506.017-.532-.013-.013-.032-.013-.087 0-.112.025-.34.02-.428-.01a1.034 1.034 0 0 0-.132-.036c-.155-.026-.436-.219-.557-.382-.095-.127-.204-.334-.204-.388a.45.45 0 0 0-.028-.094c-.051-.133-.053-.285-.054-3.57 0-3.529.006-3.286-.083-3.248zm-8.038.053a.314.314 0 0 0-.076.033.421.421 0 0 1-.113.03.648.648 0 0 0-.134.036.755.755 0 0 1-.143.04.563.563 0 0 0-.135.039.431.431 0 0 1-.112.035c-.045.01-.12.028-.165.042-.045.014-.12.033-.165.042a.6.6 0 0 0-.121.036.505.505 0 0 1-.12.033.708.708 0 0 0-.14.04.583.583 0 0 1-.13.034.637.637 0 0 0-.15.043.4.4 0 0 1-.11.034.885.885 0 0 0-.158.041 1.002 1.002 0 0 1-.15.041.562.562 0 0 0-.114.033.987.987 0 0 1-.15.043.348.348 0 0 0-.104.036.182.182 0 0 1-.06.026c-.084 0-.524.41-.524.489a.19.19 0 0 1-.034.05c-.02.023-.035.052-.035.065a.184.184 0 0 1-.027.067c-.015.025-.05.115-.08.2l-.051.155v8.028l.045.092a.753.753 0 0 1 .044.105c0 .046.17.215.237.235.03.01.053.025.053.036 0 .017.032.02.185.02.15 0 .186-.003.186-.019 0-.02.095-.05.155-.05a.251.251 0 0 0 .086-.027.606.606 0 0 1 .137-.043c.046-.008.128-.03.182-.048a.693.693 0 0 1 .127-.033.356.356 0 0 0 .094-.029.995.995 0 0 1 .167-.048.706.706 0 0 0 .128-.034.737.737 0 0 1 .13-.034.725.725 0 0 0 .144-.041.788.788 0 0 1 .148-.043.85.85 0 0 0 .131-.035.77.77 0 0 1 .128-.033.717.717 0 0 0 .145-.041.693.693 0 0 1 .14-.04c.055-.011.134-.032.175-.048a.471.471 0 0 1 .117-.028.357.357 0 0 0 .11-.033.61.61 0 0 1 .138-.042.846.846 0 0 0 .137-.036 1.07 1.07 0 0 1 .148-.04.534.534 0 0 0 .122-.036.708.708 0 0 1 .141-.04.72.72 0 0 0 .154-.048.253.253 0 0 1 .078-.028c.013 0 .041-.015.062-.033a.547.547 0 0 1 .084-.055c.06-.031.247-.212.31-.3a.959.959 0 0 0 .128-.206.32.32 0 0 1 .037-.072.45.45 0 0 0 .048-.116.73.73 0 0 1 .04-.117c.043-.082.064-.64.026-.69-.017-.022-.038-.025-.182-.023a.701.701 0 0 1-.245-.025 1.324 1.324 0 0 0-.145-.036.286.286 0 0 1-.096-.034.397.397 0 0 0-.086-.041.158.158 0 0 1-.059-.03.546.546 0 0 0-.082-.06 1.034 1.034 0 0 1-.316-.354.33.33 0 0 0-.048-.073c-.007-.004-.017-.028-.022-.052a.478.478 0 0 0-.034-.093 2.47 2.47 0 0 1-.097-.406c-.006-.038-.012-1.51-.012-3.273-.001-3.154-.002-3.205-.028-3.219a.123.123 0 0 0-.031-.013l-.063.02z" fill="#000"/><path d="M14.158 14.024c0 .028-.01.032-.116.049a.728.728 0 0 0-.15.04.76.76 0 0 1-.146.042.605.605 0 0 0-.125.035.596.596 0 0 1-.124.034.895.895 0 0 0-.151.042.858.858 0 0 1-.15.042.586.586 0 0 0-.125.033.52.52 0 0 1-.112.033c-.042.007-.11.027-.15.042a.992.992 0 0 1-.164.043.555.555 0 0 0-.128.035.504.504 0 0 1-.12.034.69.69 0 0 0-.14.04.713.713 0 0 1-.145.04.733.733 0 0 0-.137.036.73.73 0 0 1-.137.036.623.623 0 0 0-.138.04.687.687 0 0 1-.15.041.464.464 0 0 0-.126.034.607.607 0 0 1-.14.04.587.587 0 0 0-.144.042.401.401 0 0 1-.116.034.575.575 0 0 0-.138.04.5.5 0 0 1-.097.037.129.129 0 0 0-.06.03.23.23 0 0 1-.06.042c-.06.03-.266.225-.329.309-.052.07-.12.177-.12.189a.133.133 0 0 1-.026.046.236.236 0 0 0-.037.074.926.926 0 0 1-.05.123.406.406 0 0 0-.038.123c0 .084-.03.214-.05.214-.016 0-.019.569-.019 3.89 0 3.449.002 3.89.02 3.89.012 0 .021.005.021.01 0 .197.133.45.276.53l.093.05c.061.034.31.024.416-.016a.913.913 0 0 1 .165-.043.371.371 0 0 0 .117-.035.506.506 0 0 1 .137-.04.622.622 0 0 0 .132-.036c.02-.01.08-.027.132-.036a.651.651 0 0 0 .144-.04.634.634 0 0 1 .138-.041.826.826 0 0 0 .134-.035.806.806 0 0 1 .13-.034.696.696 0 0 0 .141-.041.714.714 0 0 1 .144-.042.598.598 0 0 0 .125-.034c.02-.01.08-.026.132-.035a.759.759 0 0 0 .143-.038c.027-.012.095-.032.152-.045a2.34 2.34 0 0 0 .165-.044c.034-.012.099-.028.144-.036.064-.011.092-.025.12-.057l.039-.042v-2.2c0-1.836.003-2.22.02-2.317l.028-.191a.46.46 0 0 1 .034-.125.625.625 0 0 0 .04-.122.468.468 0 0 1 .042-.117.334.334 0 0 0 .035-.086.127.127 0 0 1 .029-.06.298.298 0 0 0 .048-.074c.061-.122.091-.17.157-.255.094-.12.334-.36.406-.41a2.07 2.07 0 0 1 .27-.16.879.879 0 0 1 .137-.059.348.348 0 0 0 .083-.034.338.338 0 0 1 .103-.034.301.301 0 0 0 .093-.03l.031-.019-.003-1.47c-.004-1.344-.006-1.471-.027-1.503a.387.387 0 0 1-.04-.096.61.61 0 0 0-.107-.198 9.598 9.598 0 0 1-.06-.057.245.245 0 0 0-.094-.055c-.027-.006-.047-.02-.051-.036-.01-.035-.376-.04-.376-.006zm8.01.006c-.005.02-.024.03-.074.036a.816.816 0 0 0-.129.03c-.034.011-.099.03-.144.042a3.05 3.05 0 0 0-.145.041 2.713 2.713 0 0 1-.175.046.914.914 0 0 0-.151.045.43.43 0 0 1-.108.03c-.037.006-.11.026-.161.044a.647.647 0 0 1-.118.032.873.873 0 0 0-.141.04.792.792 0 0 1-.158.043.35.35 0 0 0-.096.022c-.03.012-.102.033-.158.046a1.974 1.974 0 0 0-.18.054.463.463 0 0 1-.113.028.526.526 0 0 0-.124.033.881.881 0 0 1-.158.042.383.383 0 0 0-.117.035.547.547 0 0 1-.148.042.487.487 0 0 0-.135.036.549.549 0 0 1-.14.039.536.536 0 0 0-.141.04.304.304 0 0 1-.102.032c-.064.009-.25.073-.295.102l-.062.04c-.097.062-.345.3-.383.367a7.225 7.225 0 0 0-.049.09.59.59 0 0 1-.057.087.267.267 0 0 0-.041.09.679.679 0 0 1-.042.111.453.453 0 0 0-.034.124c-.005.041-.018.105-.028.143-.03.102-.03 7.813 0 7.925.01.042.023.105.029.141.005.036.015.07.022.073a.322.322 0 0 1 .046.072c.042.08.101.145.161.176a.718.718 0 0 1 .082.05c.058.043.317.04.439-.006a.888.888 0 0 1 .155-.043.442.442 0 0 0 .117-.034.657.657 0 0 1 .147-.043.623.623 0 0 0 .132-.035c.02-.01.08-.027.132-.036a.654.654 0 0 0 .145-.041.562.562 0 0 1 .132-.038.735.735 0 0 0 .133-.035.812.812 0 0 1 .136-.036.696.696 0 0 0 .14-.041.706.706 0 0 1 .146-.042.64.64 0 0 0 .129-.035.637.637 0 0 1 .13-.035.627.627 0 0 0 .141-.04.46.46 0 0 1 .124-.035.594.594 0 0 0 .136-.036.709.709 0 0 1 .15-.04c.085-.013.22-.072.23-.102.003-.008.008-1.049.01-2.313.005-2.4.004-2.36.065-2.502a.344.344 0 0 0 .027-.105c0-.022.015-.068.033-.102a.524.524 0 0 0 .042-.104.221.221 0 0 1 .034-.075.328.328 0 0 0 .041-.082.183.183 0 0 1 .038-.068.208.208 0 0 0 .04-.06c.028-.059.115-.179.185-.255.02-.02.057-.061.084-.091.11-.12.246-.234.326-.276.025-.013.045-.028.045-.034 0-.005.026-.02.058-.033a.378.378 0 0 0 .08-.04.405.405 0 0 1 .096-.043.626.626 0 0 0 .103-.042.425.425 0 0 1 .109-.032.332.332 0 0 0 .1-.03c.035-.03.026-2.875-.01-2.973a1.629 1.629 0 0 1-.04-.12.74.74 0 0 0-.107-.187.458.458 0 0 0-.159-.114c-.023-.005-.044-.02-.048-.035-.01-.04-.368-.04-.379 0zm8.06-.007c0 .024-.022.032-.135.05a.712.712 0 0 0-.148.041.695.695 0 0 1-.145.04.998.998 0 0 0-.157.04 1.834 1.834 0 0 1-.153.048l-.172.045c-.049.013-.136.037-.193.054a1.71 1.71 0 0 1-.158.041.668.668 0 0 0-.117.036.874.874 0 0 1-.15.041.599.599 0 0 0-.126.034.615.615 0 0 1-.131.035.653.653 0 0 0-.145.042.463.463 0 0 1-.124.034.725.725 0 0 0-.15.04.71.71 0 0 1-.148.04.379.379 0 0 0-.117.035.498.498 0 0 1-.138.04.595.595 0 0 0-.136.036.628.628 0 0 1-.134.037.617.617 0 0 0-.14.04.595.595 0 0 1-.142.04.613.613 0 0 0-.148.043.246.246 0 0 1-.079.027.24.24 0 0 0-.086.04.342.342 0 0 1-.073.042c-.06.001-.352.31-.425.45a.367.367 0 0 1-.052.074c-.015.015-.027.038-.027.051a.288.288 0 0 1-.033.086.492.492 0 0 0-.043.124.691.691 0 0 1-.04.13l-.029.07v7.972l.03.062a.603.603 0 0 1 .038.105.281.281 0 0 0 .043.089c.019.025.034.05.034.057 0 .014.104.121.118.121.006 0 .025.013.042.029.066.062.422.067.542.007a.592.592 0 0 1 .135-.037.588.588 0 0 0 .14-.04.463.463 0 0 1 .126-.036.635.635 0 0 0 .136-.035c.034-.014.109-.035.165-.045a.73.73 0 0 0 .158-.049.257.257 0 0 1 .094-.028.64.64 0 0 0 .138-.034 1.13 1.13 0 0 1 .168-.043.458.458 0 0 0 .118-.034.637.637 0 0 1 .137-.04.838.838 0 0 0 .137-.037 1 1 0 0 1 .15-.04.533.533 0 0 0 .134-.04.434.434 0 0 1 .123-.035.586.586 0 0 0 .13-.034c.021-.011.08-.027.131-.035a.61.61 0 0 0 .146-.042.551.551 0 0 1 .14-.04.7.7 0 0 0 .148-.04.579.579 0 0 1 .134-.035.587.587 0 0 0 .144-.043.363.363 0 0 1 .106-.034.978.978 0 0 0 .257-.116 2.08 2.08 0 0 1 .097-.076 1.414 1.414 0 0 0 .332-.387.206.206 0 0 0 .031-.063c0-.009.01-.023.021-.033a.224.224 0 0 0 .04-.082.868.868 0 0 1 .048-.122.264.264 0 0 0 .03-.092c0-.082.031-.227.05-.227.015 0 .018-.627.018-3.883 0-3.235-.003-3.883-.018-3.883-.013 0-.024-.038-.037-.12-.031-.216-.171-.41-.336-.467-.035-.012-.063-.03-.063-.04 0-.016-.028-.02-.131-.02-.103 0-.13.004-.13.02z" fill="#656565"/></g></svg>